<?xml version="1.0" encoding="UTF-8" standalone="no"?>
<svg
   xmlns:dc="http://purl.org/dc/elements/1.1/"
   xmlns:cc="http://creativecommons.org/ns#"
   xmlns:rdf="http://www.w3.org/1999/02/22-rdf-syntax-ns#"
   xmlns:svg="http://www.w3.org/2000/svg"
   xmlns="http://www.w3.org/2000/svg"
   xmlns:sodipodi="http://sodipodi.sourceforge.net/DTD/sodipodi-0.dtd"
   xmlns:inkscape="http://www.inkscape.org/namespaces/inkscape"
   viewBox="0 0 256 512"
   version="1.1"
   id="svg2072"
   sodipodi:docname="angle-right.svg"
   inkscape:version="0.92.4 (5da689c313, 2019-01-14)">
  <metadata
     id="metadata2078">
    <rdf:RDF>
      <cc:Work
         rdf:about="">
        <dc:format>image/svg+xml</dc:format>
        <dc:type
           rdf:resource="http://purl.org/dc/dcmitype/StillImage" />
        <dc:title></dc:title>
      </cc:Work>
    </rdf:RDF>
  </metadata>
  <defs
     id="defs2076" />
  <sodipodi:namedview
     pagecolor="#ffffff"
     bordercolor="#666666"
     borderopacity="1"
     objecttolerance="10"
     gridtolerance="10"
     guidetolerance="10"
     inkscape:pageopacity="0"
     inkscape:pageshadow="2"
     inkscape:window-width="1920"
     inkscape:window-height="1177"
     id="namedview2074"
     showgrid="false"
     inkscape:zoom="1.96875"
     inkscape:cx="128"
     inkscape:cy="276.31746"
     inkscape:window-x="-8"
     inkscape:window-y="-8"
     inkscape:window-maximized="1"
     inkscape:current-layer="svg2072" />
  <path
     d="M224.3 273l-136 136c-9.4 9.4-24.6 9.4-33.9 0l-22.6-22.6c-9.4-9.4-9.4-24.6 0-33.9l96.4-96.4-96.4-96.4c-9.4-9.4-9.4-24.6 0-33.9L54.3 103c9.4-9.4 24.6-9.4 33.9 0l136 136c9.5 9.4 9.5 24.6.1 34z"
     id="path2070" />
  <path
     style="fill:#00ffff;fill-opacity:1;stroke:#00ffff;stroke-width:0.50793654"
     d="m 65.028187,414.98256 c -1.529735,-0.41108 -3.815449,-1.33674 -5.079365,-2.05702 -2.520487,-1.43639 -28.69115,-27.13298 -30.959374,-30.39856 -4.922235,-7.08657 -5.226756,-17.3848 -0.738426,-24.97189 1.383396,-2.3385 13.401956,-14.65084 51.030746,-52.27813 L 128.50294,256.05776 78.755759,206.2765 c -45.671383,-45.70268 -49.87128,-50.04549 -51.261956,-53.00622 -3.326647,-7.08241 -3.281063,-14.26245 0.134061,-21.11575 1.566785,-3.14415 3.53293,-5.36543 15.653422,-17.68466 13.232777,-13.44976 14.041685,-14.17309 17.83212,-15.945576 6.869057,-3.212119 15.028882,-2.968046 21.715028,0.649529 1.58366,0.856847 24.909966,23.866377 73.460686,72.463067 77.48895,77.56232 72.89062,72.61403 74.33705,79.99485 1.14441,5.83971 -0.25217,12.83054 -3.48736,17.45669 -0.84637,1.21025 -33.27026,33.88367 -72.05311,72.6076 -55.81015,55.72536 -71.018012,70.64313 -72.929982,71.53883 -5.51681,2.58447 -11.675189,3.21288 -17.127531,1.7477 z"
     id="path2090"
     inkscape:connector-curvature="0" />
  <path
     style="fill:#00ffff;fill-opacity:1;stroke:#00ffff;stroke-width:0.50793654"
     d="m 65.394755,415.27683 c -4.824759,-1.2167 -6.86688,-2.88011 -22.014047,-17.9315 -16.382997,-16.27942 -16.830172,-16.87489 -18.060632,-24.05039 -0.821111,-4.78834 -0.07283,-9.76962 2.151887,-14.32499 1.508893,-3.08964 5.669779,-7.39965 51.085365,-52.91631 C 105.7508,278.79966 128,256.29646 128,256.04653 c 0,-0.24992 -22.24843,-22.75121 -49.44096,-50.00285 -44.137451,-44.2334 -49.60979,-49.89064 -51.014827,-52.73855 -3.886138,-7.87691 -3.331727,-16.41388 1.544144,-23.77716 0.902991,-1.36364 7.698945,-8.57134 15.102119,-16.01711 11.1794,-11.24372 13.943336,-13.759386 16.310745,-14.845657 7.292729,-3.346225 15.896168,-3.164899 22.172552,0.467309 2.639984,1.527788 135.271587,133.777158 141.983447,141.574268 4.94531,5.74492 5.91227,7.76907 6.27496,13.1355 0.31889,4.71845 -0.56567,9.58384 -2.41203,13.26696 -0.73472,1.46561 -20.13844,21.24372 -61.08416,62.26277 -33.00408,33.06317 -65.53962,65.44276 -72.301199,71.95464 -14.2272,13.7018 -14.649437,13.9635 -23.007807,14.25992 -2.653968,0.0941 -5.683472,-0.0453 -6.732229,-0.30974 z"
     id="path2092"
     inkscape:connector-curvature="0" />
  <path
     style="fill:#00ffff;fill-opacity:1;stroke:#00ffff;stroke-width:0.50793654"
     d="m 63.147088,414.76628 c -1.568931,-0.62345 -4.336506,-2.54166 -6.857143,-4.7527 -6.913236,-6.06413 -26.261553,-25.63322 -28.119248,-28.44009 -2.428929,-3.66999 -3.471223,-8.15458 -3.142894,-13.5227 0.389844,-6.37386 1.667818,-9.15088 6.944296,-15.08988 2.430336,-2.73548 24.916556,-25.5766 49.969377,-50.75802 25.052824,-25.18143 45.550584,-45.94315 45.550584,-46.13715 0,-0.194 -21.23729,-21.76245 -47.193993,-47.92987 -25.956695,-26.16743 -48.474566,-49.06285 -50.039712,-50.87873 -3.604785,-4.18225 -4.936934,-7.55639 -5.249933,-13.29733 -0.286166,-5.24877 0.88781,-9.86043 3.534454,-13.88418 0.916267,-1.39303 7.71298,-8.65633 15.103806,-16.14068 12.043473,-12.19587 13.809837,-13.7908 17.022576,-15.370477 6.012762,-2.956428 13.209839,-3.215558 19.838679,-0.71429 2.938488,1.108784 5.409945,3.507147 69.018033,66.976877 36.28373,36.2048 68.76188,68.85584 72.17367,72.55786 3.4118,3.70202 6.86796,7.93059 7.68038,9.39682 1.4007,2.52796 1.47712,2.98121 1.47712,8.76112 0,7.89041 -0.72956,10.04505 -5.15909,15.23643 -4.13068,4.84113 -125.82832,126.58776 -135.438037,135.49256 -9.131556,8.46172 -10.420734,9.11776 -18.386997,9.35685 -5.239118,0.15724 -6.464738,0.0361 -8.725928,-0.86242 z"
     id="path2094"
     inkscape:connector-curvature="0" />
</svg>
